<?xml version="1.0" standalone="no"?><!DOCTYPE svg PUBLIC "-//W3C//DTD SVG 1.1//EN" "http://www.w3.org/Graphics/SVG/1.1/DTD/svg11.dtd"><svg class="icon" width="200px" height="194.12px" viewBox="0 0 1055 1024" version="1.1" xmlns="http://www.w3.org/2000/svg"><path d="M563.800824 173.811812S116.980316 105.776903 21.632122 408.58191s136.566424 615.666269 470.0368 615.293815c277.22984 0 577.179367-99.321035 563.274422-475.996063S675.536989 162.514044 563.800824 173.811812z" fill="#FF9566" /><path d="M863.005443 939.576996c-361.901023 54.999023-557.439312-91.12705-615.666268-153.575151a656.139591 656.139591 0 0 1-132.966037-517.710898 296.224988 296.224988 0 0 0-92.741016 140.290963c-95.472345 302.929158 136.566424 615.666269 470.0368 615.417966 130.48301-0.248303 265.68377-22.09893 371.336521-84.42288z" fill="#F27E51" /><path d="M535.370178 395.918478a132.34528 132.34528 0 0 1-72.752659 30.665369c-47.674097 5.959262-154.816664 44.446163-191.937901 30.044614s-82.684762 5.959262-91.996109 28.8031c-26.81668-18.001938-55.868082-98.576128-6.952473-143.022291 25.575167-20.484964 20.857417-37.245388 17.381182-56.488839s15.146458-45.687676 93.11347-55.247326c38.36275-3.600388 38.983506-31.037824 21.850628-48.543156s-26.568377-28.306495-5.586808-48.791459a48.543156 48.543156 0 0 0 16.26382-42.087289s86.160998-13.160037 122.164873 13.160038 100.065943 79.829282 124.151295 62.696403 129.117346-74.490777 237.377274-28.927251a313.60617 313.60617 0 0 0 201.249248 15.643063s-8.069834 79.208526-45.315222 98.451976 0 66.17264-93.113471 64.931127c65.055278 49.660518 45.315222 98.451976 29.051403 117.695427s8.690591 76.973803 2.85548 84.795334c-20.360812-2.979631-120.923361-32.527639-127.379228-63.689614s-56.488839-61.330739-76.228895-59.46847-61.082437 33.645001-71.883599 88.147419c-38.735204-11.173616-92.741017-24.830259-82.684762-88.768175z" fill="#8AD884" /><path d="M923.715426 211.0572c-45.811828 10.428709-96.962161 44.942769-123.282235 22.471385s-106.273508-67.290002-135.821516-70.517936a90.878747 90.878747 0 0 1-47.301643-23.464594 272.263789 272.263789 0 0 0-55.868083 28.058192c-14.649853 10.304557-43.701256-4.8419-72.256053-24.830258a295.852534 295.852534 0 0 1-98.327825 5.338505c-38.859355-7.076624-65.303581 25.947621-78.091164 47.549946 5.959262 15.643063-1.117362 32.279337-30.541219 35.010665-5.71096 0.744908-11.049465 1.613967-16.139668 2.483026l-25.823469 13.656642s-23.340443 68.779817 14.029096 91.251202a102.300667 102.300667 0 0 1 45.811828 48.91561s-128.744892 14.774004-119.433545 94.727437c12.415129-21.10572 54.750721-38.486901 89.885537-24.830259 37.245388 14.525701 144.263804-23.9612 191.937901-29.920462a132.717734 132.717734 0 0 0 72.752658-30.665369c-10.056255 64.062068 44.073709 77.470408 82.808914 88.768175 10.925314-54.502418 52.267695-86.905906 72.00775-88.147419s69.773027 28.306495 76.104744 59.46847 96.093102 57.357898 123.282235 62.944706c0 0-66.545094-77.470408-74.490777-114.343342s-20.360812-49.039761-17.753635-73.125112l3.103783-23.9612 61.330739 9.55965c93.113471 1.241513 55.868082-45.687676 93.113471-64.806976C987.280889 235.887459 997.585446 173.811812 999.696018 157.672144c-21.229871 21.602325-50.529577 47.177492-75.980592 53.012603z" fill="#78C172" /><path d="M440.518589 207.829267s34.017455 18.498543 49.660517 15.767214 85.043637-10.428709 112.853527 0 31.286126 26.444226 64.31037 19.988359a154.44421 154.44421 0 0 1 52.764301-2.358875s-20.609115 12.415129-15.27061 28.678949 21.478174 40.597473-3.600387 60.958285-85.912696 10.180406-106.521811 31.410278-119.93015-23.9612-141.408324-15.767214-78.711921-10.056255-73.373415-33.272547S360.06855 235.887459 400.169418 231.914618s40.349171-24.085351 40.349171-24.085351z" fill="#AA6521" /><path d="M494.027797 0s29.051403 16.884576 48.91561 9.683801c3.476236 41.963137 8.442288 101.059154 29.920461 120.178453s36.376329 115.336552 35.507271 144.139653a127.875833 127.875833 0 0 0 0 24.830259s-116.329763 26.195923-125.64111 4.717749 11.54607-26.320074 22.09893-47.9224 34.886514-84.174578 9.311347-128.620741S491.668922 22.843838 494.027797 0z" fill="#B77125" /><path d="M772.126696 902.083305a19.740056 19.740056 0 0 1-10.801163-36.376329A318.075616 318.075616 0 0 0 893.919116 703.937839a19.615905 19.615905 0 0 1 24.830259-12.415129 19.740056 19.740056 0 0 1 12.415129 24.830258 360.038754 360.038754 0 0 1-148.236645 182.626554 20.11251 20.11251 0 0 1-10.801163 3.103783zM928.681478 651.670144h-1.241513a19.988358 19.988358 0 0 1-18.622694-20.981569 163.879709 163.879709 0 0 0 0-19.24345 19.864207 19.864207 0 0 1 39.728414-3.103783 211.926259 211.926259 0 0 1 0 24.830259 19.864207 19.864207 0 0 1-19.740056 18.622694z" fill="#FFFFFF" /></svg>