<?xml version="1.0" standalone="no"?><!DOCTYPE svg PUBLIC "-//W3C//DTD SVG 1.1//EN" "http://www.w3.org/Graphics/SVG/1.1/DTD/svg11.dtd"><svg class="icon" width="200px" height="200.00px" viewBox="0 0 1024 1024" version="1.1" xmlns="http://www.w3.org/2000/svg"><path d="M548.429361 69.232858C465.095326 18.409869 338.576439 0 338.576439 0L268.266408 278.008607a242.266042 242.266042 0 0 0 9.792483 69.330783c42.695228-162.065602 198.88534-246.868509 270.37047-278.106532z" fill="#DD6472" /><path d="M548.429361 69.232858C476.944231 100.470881 320.754119 185.273788 278.058891 347.33939c0.489624 1.762647 0.979248 3.427369 1.566797 5.190016 9.792484-28.691977 36.330114-50.529215 63.161519-78.339868 45.339199-46.905996 207.894425-89.699149 273.406139-128.477383-8.519461-31.140098-34.567467-56.30678-67.763985-76.479297z" fill="#B74E62" /><path d="M510.3366 1024a23.110261 23.110261 0 0 1-23.110261-23.110261V434.688343a23.110261 23.110261 0 0 1 46.220522 0v566.201396a23.110261 23.110261 0 0 1-23.110261 23.110261z m0 0" fill="#1DAA6A" /><path d="M513.078495 713.969972c-4.700392-11.848905 30.356699-83.138185 83.138185-120.643397 39.169934-27.908578 127.302286-37.896911 131.415129-27.810653s-48.962418 78.339868-90.090848 103.212776c-51.802238 32.119346-119.859998 57.090179-124.462466 45.241274z m0 0M286.480427 686.159319c8.91116-9.204934 88.132352-6.267189 143.949507 26.53763 41.52013 24.481209 86.761404 100.86258 79.221192 108.598642s-91.363871-13.121928-131.121354-40.051257C328.294331 747.166491 277.471342 695.266329 286.480427 686.159319z m0 0" fill="#1DAA6A" /><path d="M755.540387 288.780339V278.106532L686.209604 2.741895S647.431369 57.677728 512.295096 137.094769c-65.609639 39.169934-129.652482 83.23611-174.99168 130.142106A248.043607 248.043607 0 0 0 280.017388 352.529406a241.286794 241.286794 0 0 0 22.914411 50.333365c226.304294 160.792579 372.603997 20.564215 452.608588-114.082432z" fill="#D1525C" /><path d="M302.931799 402.960696a251.275127 251.275127 0 0 0 39.169934 48.962418 243.44114 243.44114 0 0 0 413.438654-163.142775C675.535796 423.426987 529.236093 563.65535 302.931799 402.960696z" fill="#BF4352" /><path d="M681.705061 141.991011l14.9825 95.280864c1.566797 9.792484 16.647222 5.67964 15.080424-4.112843l-15.080424-95.280864c-1.468873-9.792484-16.549297-5.67964-14.9825 4.112843zM702.465126 291.424309a7.833987 7.833987 0 0 0 0-15.570049 7.833987 7.833987 0 0 0 0 15.570049zM366.778792 44.066176a7.833987 7.833987 0 0 0 0-15.667974 7.833987 7.833987 0 0 0 0 15.667974z" fill="#FFFFFF" /></svg>