<?xml version="1.0" standalone="no"?><!DOCTYPE svg PUBLIC "-//W3C//DTD SVG 1.1//EN" "http://www.w3.org/Graphics/SVG/1.1/DTD/svg11.dtd"><svg class="icon" width="200px" height="200.00px" viewBox="0 0 1024 1024" version="1.1" xmlns="http://www.w3.org/2000/svg"><path d="M170.554572 206.802633s192.97951-20.57142 268.952267 130.61219c0 0 29.60543 66.176843 28.299308 110.584987 0 0-188.081553 42.231275-285.387634-122.122398 0-0.217687-28.408151-68.789086-11.863941-119.074779z" fill="#5C9345" /><path d="M494.037428 130.612189A401.305952 401.305952 0 0 0 384.323189 13.387749c-52.027189 33.197265-76.843505 115.265257-76.843505 115.265258-19.156454 125.061171 38.095222 211.156373 90.448941 261.986283-18.39455-157.170001 64.54419-236.190376 96.108803-260.027101z" fill="#7EB951" /><path d="M494.037428 130.612189c-31.564612 23.945568-114.503353 102.965943-96.108803 260.135944a341.550875 341.550875 0 0 0 74.775479 55.510181c33.523795-38.748283 55.727867-119.72784 55.727867-119.727841a261.224379 261.224379 0 0 0-34.394543-195.918284z" fill="#5C9345" /><path d="M833.30259 152.380888s-193.959101-1.959183-255.129143 156.081566c0 0-23.07482 68.789086-17.523802 112.8707 0 0 191.238014 23.945568 272.108727-149.006739 0.217687 0.32653 21.986385-70.639426 0.544218-119.945527z" fill="#6CAA4F" /><path d="M715.533933 0S502.636064 69.333304 494.037428 264.598527c0 0 0 83.700645 22.312916 129.850285 0 0 217.686982-44.190457 243.047515-263.183562 0 0-2.394557-85.550984-43.863926-131.26525z" fill="#7EB951" /><path d="M947.588256 532.462359a154.34007 154.34007 0 0 0-141.496539-153.904697 84.027175 84.027175 0 0 0-142.258443-88.925132 88.925132 88.925132 0 0 0-164.462515 10.884349 91.319689 91.319689 0 0 0-166.421698-13.278906 84.027175 84.027175 0 0 0-138.557764 95.673429 154.448914 154.448914 0 0 0-10.884349 295.945452 127.564572 127.564572 0 0 0 105.578186 199.83665h1.306122a122.013554 122.013554 0 0 0-1.306122 17.850333A127.455728 127.455728 0 0 0 512.976196 979.59142a127.564572 127.564572 0 0 0 223.999904-83.482957 122.013554 122.013554 0 0 0-1.306122-17.850333h1.306122a127.455728 127.455728 0 0 0 105.033969-199.401276A154.557757 154.557757 0 0 0 947.588256 532.462359z" fill="#CD1F4D" /><path d="M947.588256 532.462359a154.34007 154.34007 0 0 0-141.496539-153.904697 84.027175 84.027175 0 0 0-95.455742-121.469336 90.013567 90.013567 0 0 1 11.972784 103.18363 165.659794 165.659794 0 0 1 38.63944 321.959046 136.707425 136.707425 0 0 1-112.761857 214.203991h-1.306122a137.687016 137.687016 0 0 1 1.306122 19.047611A136.163207 136.163207 0 0 1 595.914936 1023.128817a110.911517 110.911517 0 0 0 13.496593 0.761904 127.564572 127.564572 0 0 0 127.564571-127.455728 122.013554 122.013554 0 0 0-1.306122-17.850333h1.306122a127.455728 127.455728 0 0 0 105.033969-199.727806A154.557757 154.557757 0 0 0 947.588256 532.462359z" fill="#93233B" /><path d="M378.11911 916.462195a140.516947 140.516947 0 0 1 1.414965-19.156454h-1.414965A137.360486 137.360486 0 0 1 265.030723 682.448689a166.312854 166.312854 0 0 1 10.884349-318.476055 90.122411 90.122411 0 0 1 8.272105-107.101995 87.074793 87.074793 0 0 0-20.789107-2.612244 84.136019 84.136019 0 0 0-71.292486 128.653007 154.448914 154.448914 0 0 0-10.340132 295.945452 127.564572 127.564572 0 0 0 105.142812 199.83665h1.197279a139.101982 139.101982 0 0 0-1.197279 17.850333 127.564572 127.564572 0 0 0 127.891103 127.455728c4.789114 0 9.578227 0 14.258497-0.761905a137.251642 137.251642 0 0 1-50.938754-106.775465z" fill="#CD1F4D" /><path d="M247.071547 412.625675A102.421725 102.421725 0 0 0 184.486539 500.680059a11.755097 11.755097 0 0 0 23.510194 0c0.653061-30.802708 23.727881-55.836711 50.938754-68.027182 13.823123-6.095236 1.850339-26.340125-11.86394-20.244889zM197.547758 586.775261c0 26.448968 23.401351 47.564606 45.278893 57.904737 13.605436 6.530609 25.57822-13.71428 11.86394-20.244889a60.843512 60.843512 0 0 1-30.585021-26.557812 53.550998 53.550998 0 0 1-2.829931-8.925166c-0.761904-3.047618 0 1.850339 0-0.870748a5.333331 5.333331 0 0 1 0-1.306122 11.755097 11.755097 0 0 0-23.510194 0z" fill="#FFFFFF" /><path d="M291.153161 710.747997m-16.870742 0a16.870741 16.870741 0 1 0 33.741483 0 16.870741 16.870741 0 1 0-33.741483 0Z" fill="#FFFFFF" /></svg>