<?xml version="1.0" standalone="no"?><!DOCTYPE svg PUBLIC "-//W3C//DTD SVG 1.1//EN" "http://www.w3.org/Graphics/SVG/1.1/DTD/svg11.dtd"><svg class="icon" width="200px" height="200.00px" viewBox="0 0 1024 1024" version="1.1" xmlns="http://www.w3.org/2000/svg"><path d="M511.991222 490.893813a18.966278 18.966278 0 0 0-18.966278 18.966278V1004.726161a18.966278 18.966278 0 0 0 18.966278 18.966278 18.453676 18.453676 0 0 0 5.843664-1.025204V492.124059a18.453676 18.453676 0 0 0-5.843664-1.230246z" fill="#FCE3CA" /><path d="M517.834886 492.124059v531.055778a18.863757 18.863757 0 0 0 13.122614-18.453676V509.860091A18.863757 18.863757 0 0 0 517.834886 492.124059z" fill="#E0B89B" /><path d="M645.370289 587.263009a143.528589 143.528589 0 0 1-236.719651 4.408378 216.420608 216.420608 0 0 1-23.169615 1.230245A217.958414 217.958414 0 0 1 177.057008 446.19491a201.247585 201.247585 0 0 0-10.252042 62.229895C166.804966 623.862799 264.711968 717.668984 385.481023 717.668984a216.420608 216.420608 0 0 0 23.169615-1.230245 143.528589 143.528589 0 0 0 236.719651-4.408379c117.590922-3.383174 211.807189-95.549032 211.807189-208.834096a198.787095 198.787095 0 0 0-10.252043-62.229895 217.240771 217.240771 0 0 1-201.555146 146.29664z" fill="#F387B8" /><path d="M755.579741 326.451059A153.780631 153.780631 0 0 0 751.171363 199.018176a166.493163 166.493163 0 0 0-117.385882-87.654959A138.402568 138.402568 0 0 0 495.382914 0.02604a140.555496 140.555496 0 0 0-125.792556 75.044948h-3.383174a69.816406 69.816406 0 0 0-71.764295 68.17608 63.152579 63.152579 0 0 0 1.845368 15.378063 162.187305 162.187305 0 0 0-67.868518 79.555846A153.780631 153.780631 0 0 0 232.623076 358.847512 209.449219 209.449219 0 0 0 177.057008 446.19491a217.958414 217.958414 0 0 0 208.424015 146.706722 216.420608 216.420608 0 0 0 23.169615-1.230245 143.528589 143.528589 0 0 0 236.719651-4.408378A217.240771 217.240771 0 0 0 847.232997 440.863848a210.576944 210.576944 0 0 0-91.653256-114.412789z" fill="#F7ADCE" /><path d="M414.494302 61.538292a322.324202 322.324202 0 0 0-29.013279 36.804831 10.867165 10.867165 0 1 0 18.658716 10.969685c3.588215-5.331062 7.38147-10.252042 11.277247-15.583103l-1.742848 2.255449c5.126021-6.561307 10.252042-12.917573 16.095707-19.068798A10.867165 10.867165 0 1 0 414.494302 61.538292zM326.121699 150.320977a39.982964 39.982964 0 0 0 10.252042 26.347748 38.342637 38.342637 0 0 0 22.349452 13.122614 12.19993 12.19993 0 0 0 8.304154-1.127725 11.277246 11.277246 0 0 0 5.023501-6.458787 10.969685 10.969685 0 0 0-1.127725-8.406674 10.252042 10.252042 0 0 0-6.458786-4.92098 27.065391 27.065391 0 0 1-6.253746-1.742847l2.563011 1.025204a25.732626 25.732626 0 0 1-6.253746-3.690735l2.152929 1.742847a34.03678 34.03678 0 0 1-5.433583-5.433582l1.640327 2.152928a36.59979 36.59979 0 0 1-4.100817-6.971388l1.127725 2.56301a33.626698 33.626698 0 0 1-1.947888-6.971388v2.870571a26.75783 26.75783 0 0 1 0-4.100816 10.867165 10.867165 0 0 0-21.631809 0z" fill="#FFFFFF" /><path d="M358.313111 168.774652c-51.875333 11.994889-76.275193 64.690385-83.349101 112.772463a11.174726 11.174726 0 0 0 7.586511 13.327655 10.867165 10.867165 0 0 0 13.327654-7.586512c5.946184-40.495566 23.682217-87.347398 68.17608-97.59944 13.532696-3.075613 7.791552-23.989778-5.741144-20.504084z" fill="#FFFFFF" /><path d="M762.858691 231.824711s11.277246 60.076966-7.27895 94.626348-102.52042 102.52042-201.350106 50.235006c0 0 190.482941 3.793256 208.629056-144.861354zM574.528678 394.627139s-64.792906 71.764294-120.974096 91.243174S251.281792 500.018131 239.491944 357.412226c0 0 139.735333 174.489756 335.036734 37.214913zM592.572272 179.334256s-83.656663 40.393046-137.377363 40.393045c-50.747608 0-124.972393-47.671996-79.658367-150.192416 0 0-39.675403 209.141658 217.03573 109.799371z" fill="#F79CC9" /></svg>