<?xml version="1.0" standalone="no"?><!DOCTYPE svg PUBLIC "-//W3C//DTD SVG 1.1//EN" "http://www.w3.org/Graphics/SVG/1.1/DTD/svg11.dtd"><svg class="icon" width="200px" height="200.00px" viewBox="0 0 1024 1024" version="1.1" xmlns="http://www.w3.org/2000/svg"><path d="M207.684801 209.670716C101.281617 283.776666 31.46106 438.155354 35.119322 603.613351c26.23497 221.168113 177.687047 341.054609 348.475656 384.744718C68.461774 759.559865 113.615188 464.912933 207.684801 209.670716z" fill="#564AAF" /><path d="M708.866796 169.429825c-92.501786-10.452179-87.902827 24.667143-194.828621 35.53741-114.973972-1.881392-117.482495-44.212718-217.091763-35.641931a253.047259 253.047259 0 0 0-89.261611 40.345412c-94.069613 255.242217-139.223027 549.88915 175.910177 778.687353a634.133714 634.133714 0 0 0 102.326835 17.246096C746.285598 1027.344697 972.157191 874.324793 988.776156 603.717873c2.822088-170.266-34.492191-391.120547-279.90936-434.288048z" fill="#6C59C6" /><path d="M537.869144 212.910891s-186.989487 78.600388-139.32755 459.373278c0 0-127.412065-274.369705 46.61672-473.692763z" fill="#564AAF" /><path d="M494.283556 269.770746a34.910279 34.910279 0 0 1-40.868021-33.23793 258.691436 258.691436 0 0 1 3.44922-45.885067c14.110442-83.617434 67.102991-140.686333 106.925793-172.774523a35.0148 35.0148 0 0 1 51.529244 8.779831l1.567827 2.508523a34.910279 34.910279 0 0 1-7.421048 45.885067c-30.415842 24.562621-70.134123 67.207513-80.48178 127.934674a182.181484 182.181484 0 0 0-2.508523 30.206798 35.850975 35.850975 0 0 1-29.370623 36.16454h-2.822089z" fill="#795548" /><path d="M854.674696 465.226498c32.610799 0 32.610799-50.588548 0-50.588548s-32.610799 50.588548 0 50.588548zM859.378177 539.123405a328.825559 328.825559 0 0 1-11.706441 187.303052 300.186588 300.186588 0 0 1-33.133408 60.936205l-4.389915 6.062264-2.92661 3.867306c-3.240176 4.07635-6.689395 8.1527-10.45218 12.124528-5.85322 6.689395-12.020006 13.065224-18.395835 19.127488-3.240176 3.031132-6.584873 5.957742-10.452179 8.884353l-4.912525 4.076349c-3.867306 3.344697 0 0 0 0a167.234868 167.234868 0 0 1-14.424007 9.825049C721.304889 867.530877 746.912728 911.220986 775.133612 894.706543a273.742574 273.742574 0 0 0 77.241605-73.896907 337.291824 337.291824 0 0 0 63.653771-163.576605 403.663162 403.663162 0 0 0-7.839134-131.592937c-6.793917-31.356538-55.501072-18.291314-48.811677 13.483311z" fill="#FFFFFF" /><path d="M138.073288 29.788711l145.494335-11.915485 85.289782 35.746453 58.845769 33.342452L492.297642 167.234868s5.85322 38.045932 0 50.797591L352.656528 175.596611l-131.383894-69.088905z" fill="#408E40" /><path d="M292.13841 64.280902A475.365112 475.365112 0 0 0 145.076248 31.356538a472.33398 472.33398 0 0 1 125.426151 10.452179C368.230275 62.713075 449.548229 111.106665 492.402164 167.234868A250.120649 250.120649 0 0 0 138.073288 29.788711a249.702562 249.702562 0 0 0 240.400122 209.984281 246.148821 246.148821 0 0 0 111.94284-23.517404C453.311014 156.782689 382.445238 99.609268 292.13841 64.280902z" fill="#4CAF50" /></svg>