<?xml version="1.0" standalone="no"?><!DOCTYPE svg PUBLIC "-//W3C//DTD SVG 1.1//EN" "http://www.w3.org/Graphics/SVG/1.1/DTD/svg11.dtd"><svg class="icon" width="200px" height="200.00px" viewBox="0 0 1024 1024" version="1.1" xmlns="http://www.w3.org/2000/svg"><path d="M109.314728 473.594651a481.404095 481.404095 0 0 1 52.098621-218.450481 467.17593 467.17593 0 0 0-94.676139 439.254493A449.310489 449.310489 0 0 0 368.631067 1002.497284c181.863769 54.559131 354.099457 0.85583 468.673632-111.578772a483.650648 483.650648 0 0 1-728.09695-417.216882z" fill="#D3976A" /><path d="M974.13044 511.465107a32.093606 32.093606 0 0 0-49.210196-23.107397l-26.209778 18.079398a46.856665 46.856665 0 0 1-65.363979-12.19557L717.916483 324.145424a20.432929 20.432929 0 0 0-31.237777-3.20936l-28.349352 28.135394A20.218972 20.218972 0 0 1 625.379918 342.331801l-14.870038-39.796072a20.218972 20.218972 0 0 0-24.819055-12.409528l-83.871291 24.819056a57.768491 57.768491 0 0 1-67.289595-28.028416l-47.605516-88.792311a85.58295 85.58295 0 0 0-119.495194-33.377351 469.208525 469.208525 0 0 0-106.01588 90.396991 483.650648 483.650648 0 0 0 675.998328 635.774342 462.789804 462.789804 0 0 0 139.072295-331.633932 445.566235 445.566235 0 0 0-2.353532-47.819473z" fill="#EAB371" /><path d="M300.271686 394.109486m-66.112829 0a66.112829 66.112829 0 1 0 132.225658 0 66.112829 66.112829 0 1 0-132.225658 0Z" fill="#613212" /><path d="M483.419199 566.773088m-59.587129 0a59.587129 59.587129 0 1 0 119.174258 0 59.587129 59.587129 0 1 0-119.174258 0Z" fill="#613212" /><path d="M693.632321 35.409946m-35.409946 0a35.409946 35.409946 0 1 0 70.819892 0 35.409946 35.409946 0 1 0-70.819892 0Z" fill="#613212" /><path d="M733.107457 615.341412m-60.442959 0a60.442959 60.442959 0 1 0 120.885917 0 60.442959 60.442959 0 1 0-120.885917 0Z" fill="#613212" /><path d="M841.369889 212.566653m-47.819474 0a47.819473 47.819473 0 1 0 95.638947 0 47.819473 47.819473 0 1 0-95.638947 0Z" fill="#613212" /><path d="M244.321832 720.073548m-57.340577 0a57.340577 57.340577 0 1 0 114.681154 0 57.340577 57.340577 0 1 0-114.681154 0Z" fill="#613212" /><path d="M543.006328 152.337651m-57.340576 0a57.340577 57.340577 0 1 0 114.681153 0 57.340577 57.340577 0 1 0-114.681153 0Z" fill="#613212" /><path d="M543.006328 822.880067m-60.122022 0a60.122023 60.122023 0 1 0 120.244045 0 60.122023 60.122023 0 1 0-120.244045 0Z" fill="#613212" /></svg>