<?xml version="1.0" standalone="no"?><!DOCTYPE svg PUBLIC "-//W3C//DTD SVG 1.1//EN" "http://www.w3.org/Graphics/SVG/1.1/DTD/svg11.dtd"><svg class="icon" width="200px" height="200.00px" viewBox="0 0 1024 1024" version="1.1" xmlns="http://www.w3.org/2000/svg"><path d="M598.597359 767.896026l8.207791-71.792201L626.960993 524.779168l23.896101-207.792187 20.779219-179.740242 6.753246-59.324669c1.142857-9.350648 2.909091-18.909089 3.324675-28.259737v-1.35065a19.220777 19.220777 0 0 0-19.42857-19.012985 19.532466 19.532466 0 0 0-19.116881 19.012985l-8.207791 71.480513-19.740258 171.636346-23.999998 207.792187-20.779218 179.740241-6.857142 59.324669c-1.038961 9.350648-2.805195 18.909089-3.220779 28.259738v1.350649a19.116881 19.116881 0 0 0 19.116881 19.116881 19.636362 19.636362 0 0 0 19.116881-19.116881z" fill="#754A27" /><path d="M511.948017 376.31165m-301.714255 0a301.714255 301.714255 0 1 0 603.42851 0 301.714255 301.714255 0 1 0-603.42851 0Z" fill="#F0F9FF" /><path d="M511.948017 376.31165m-254.441532 0a254.441533 254.441533 0 1 0 508.883065 0 254.441533 254.441533 0 1 0-508.883065 0Z" fill="#D4F5FF" /><path d="M347.376605 1023.999896H688.259688a50.701294 50.701294 0 0 0 50.389605-44.259736L813.973961 396.467492H210.233762l86.96103 584.207733a50.701294 50.701294 0 0 0 50.181813 43.324671z" fill="#F0F9FF" /><path d="M707.168777 413.506452l-58.805189 478.545406A43.532463 43.532463 0 0 1 606.181774 931.220685H331.168815a43.324671 43.324671 0 0 0 41.558437 37.194801h287.896075a43.636359 43.636359 0 0 0 42.493502-39.168827l63.272721-515.740207z" fill="#EDC098" /><path d="M648.363588 892.051858l58.805189-478.545406H257.610381l73.350642 516.675272a4.571428 4.571428 0 0 0 0 1.038961H606.181774a43.532463 43.532463 0 0 0 42.181814-39.168827z" fill="#FFDDBB" /><path d="M446.389582 871.064847A96.727263 96.727263 0 0 1 440.986985 883.116794a39.688308 39.688308 0 0 1 4.25974 17.766231 40.41558 40.41558 0 0 1-62.337656 33.662335 123.428559 123.428559 0 0 1-12.467531 3.740259 51.116878 51.116878 0 0 0 76.363629-67.220772z" fill="#E2C5AC" /><path d="M382.493485 935.06484a40.41558 40.41558 0 0 0 62.337656-33.662334A39.688308 39.688308 0 0 0 440.986985 883.116794a108.571418 108.571418 0 0 1-58.4935 51.948046z" fill="#77442D" /><path d="M364.519461 900.883025A40.311684 40.311684 0 0 1 440.986985 883.116794a96.727263 96.727263 0 0 0 5.402597-12.051947 51.116878 51.116878 0 1 0-76.363628 67.220772 123.428559 123.428559 0 0 0 12.467531-3.740259 40.311684 40.311684 0 0 1-17.974024-33.662335z" fill="#FFF2E6" /><path d="M404.935041 860.467445A40.41558 40.41558 0 0 0 382.493485 935.06484a108.571418 108.571418 0 0 0 58.4935-51.948046 40.207788 40.207788 0 0 0-36.051944-22.649349z" fill="#84563D" /><path d="M533.454509 882.389521a105.558431 105.558431 0 0 1-5.402597 12.155843 38.857139 38.857139 0 0 1 4.25974 17.662336 40.41558 40.41558 0 0 1-62.337656 33.662334 123.428559 123.428559 0 0 1-12.467532 3.740259A51.116878 51.116878 0 0 0 533.454509 882.389521z" fill="#E2C5AC" /><path d="M469.766203 945.45445a40.41558 40.41558 0 0 0 62.337656-33.662335 38.857139 38.857139 0 0 0-4.259739-17.662336A108.77921 108.77921 0 0 1 469.766203 945.45445z" fill="#77442D" /><path d="M451.792179 912.2077a40.207788 40.207788 0 0 1 76.467525-17.662336 105.558431 105.558431 0 0 0 5.194805-12.155843 51.116878 51.116878 0 1 0-76.363629 67.220772 123.428559 123.428559 0 0 0 12.467531-3.740259 40.311684 40.311684 0 0 1-17.766232-33.662334z" fill="#FFF2E6" /><path d="M491.896071 871.792119A40.41558 40.41558 0 0 0 469.766203 945.45445a108.77921 108.77921 0 0 0 58.493501-50.909086 40.207788 40.207788 0 0 0-36.363633-22.753245z" fill="#84563D" /><path d="M511.220745 813.090827a114.285703 114.285703 0 0 1-5.298701 12.051946 40.311684 40.311684 0 0 1-58.597397 51.324671 105.558431 105.558431 0 0 1-12.363635 3.740259 51.012982 51.012982 0 0 0 76.259733-67.116876z" fill="#E2C5AC" /><path d="M447.324647 876.467444a40.207788 40.207788 0 0 0 58.597397-51.324671 109.29869 109.29869 0 0 1-58.597397 51.324671z" fill="#77442D" /><path d="M429.558415 842.909005a40.311684 40.311684 0 0 1 76.571421-17.766232 114.285703 114.285703 0 0 0 5.298701-12.051946 51.012982 51.012982 0 1 0-76.259733 67.116876 105.558431 105.558431 0 0 0 12.363635-3.740259A40.41558 40.41558 0 0 1 429.558415 842.909005z" fill="#FFF2E6" /><path d="M469.766203 802.493425a40.41558 40.41558 0 0 0-22.441556 73.974019 109.29869 109.29869 0 0 0 58.597397-51.324671 40.311684 40.311684 0 0 0-36.155841-22.649348z" fill="#84563D" /><path d="M569.818141 737.662263a96.727263 96.727263 0 0 1-5.194804 12.467531 39.272723 39.272723 0 0 1 4.259739 17.766232 40.311684 40.311684 0 0 1-62.337656 33.558438 86.129861 86.129861 0 0 1-12.467531 3.740259A51.116878 51.116878 0 0 0 569.818141 737.662263z" fill="#E2C5AC" /><path d="M505.922044 801.454464a40.311684 40.311684 0 0 0 62.337656-33.558438A39.272723 39.272723 0 0 0 564.623337 750.129794a108.77921 108.77921 0 0 1-58.701293 51.32467z" fill="#77442D" /><path d="M487.94802 767.896026A40.311684 40.311684 0 0 1 564.623337 750.129794a96.727263 96.727263 0 0 0 5.194804-12.467531 51.116878 51.116878 0 1 0-76.363628 67.116876 86.129861 86.129861 0 0 0 12.467531-3.740259 40.103892 40.103892 0 0 1-17.974024-33.142854z" fill="#FFF2E6" /><path d="M528.259704 727.272653a40.41558 40.41558 0 0 0-22.33766 73.974019A108.77921 108.77921 0 0 0 564.623337 750.129794a40.103892 40.103892 0 0 0-36.363633-22.857141z" fill="#84563D" /><path d="M423.948026 795.324595a114.285703 114.285703 0 0 1-4.77922 12.051946 40.207788 40.207788 0 0 1-36.155841 58.181813 39.792204 39.792204 0 0 1-22.441556-6.857142 106.181807 106.181807 0 0 1-12.363635 3.844155 50.597397 50.597397 0 0 0 34.805191 13.714284 51.012982 51.012982 0 0 0 41.558438-80.935056z" fill="#E2C5AC" /><path d="M360.051929 858.701212a39.792204 39.792204 0 0 0 22.441556 6.857142 40.207788 40.207788 0 0 0 36.675321-58.181813 109.29869 109.29869 0 0 1-59.116877 51.324671z" fill="#77442D" /><path d="M342.077905 825.142773A40.311684 40.311684 0 0 1 419.168806 807.376541a114.285703 114.285703 0 0 0 5.298701-12.051946A51.116878 51.116878 0 1 0 347.688294 862.337575a106.181807 106.181807 0 0 0 12.363635-3.844156 40.207788 40.207788 0 0 1-17.974024-33.350646z" fill="#FFF2E6" /><path d="M382.493485 784.727193a40.41558 40.41558 0 0 0-22.441556 73.974019A109.29869 109.29869 0 0 0 419.168806 807.376541a40.519476 40.519476 0 0 0-36.675321-22.649348z" fill="#84563D" /><path d="M595.792165 802.909009c0 4.363636 0.51948 8.727272 0 13.194804a39.688308 39.688308 0 0 1 11.532466 14.129869 40.311684 40.311684 0 0 1-41.558437 57.45454 128.207779 128.207779 0 0 1-9.558441 8.831168 51.116878 51.116878 0 0 0 39.688308-93.506484z" fill="#E2C5AC" /><path d="M565.766194 887.688222a40.311684 40.311684 0 0 0 41.558437-57.45454A39.688308 39.688308 0 0 0 595.792165 816.103813a109.29869 109.29869 0 0 1-30.025971 71.584409z" fill="#77442D" /><path d="M535.01295 865.246665a40.311684 40.311684 0 0 1 61.298695-49.142852v-13.194804a50.597397 50.597397 0 0 0-46.649346-1.246753 51.116878 51.116878 0 0 0 6.961038 94.857134 128.207779 128.207779 0 0 0 9.558441-8.831168 40.207788 40.207788 0 0 1-31.168828-22.441557z" fill="#FFF2E6" /><path d="M554.233727 811.324593a40.311684 40.311684 0 0 0 11.844155 76.363629 109.29869 109.29869 0 0 0 30.545451-71.584409 40.103892 40.103892 0 0 0-42.389606-4.77922z" fill="#84563D" /><path d="M613.870085 863.999912v13.194804a41.558437 41.558437 0 0 1 11.532466 14.129869A40.41558 40.41558 0 0 1 606.909047 945.45445a39.480515 39.480515 0 0 1-23.168829 3.532467 128.207779 128.207779 0 0 1-9.558441 8.831168 50.701294 50.701294 0 0 0 37.298698-2.701299 51.220774 51.220774 0 0 0 23.999997-68.259733 51.948047 51.948047 0 0 0-21.610387-22.857141z" fill="#E2C5AC" /><path d="M583.740218 948.779125a39.480515 39.480515 0 0 0 23.168829-3.324675 40.41558 40.41558 0 0 0 18.909089-53.922073 41.558437 41.558437 0 0 0-11.532467-14.129869 109.29869 109.29869 0 0 1-30.545451 71.376617z" fill="#77442D" /><path d="M552.986974 926.337568a40.311684 40.311684 0 0 1 61.298695-49.142852v-13.194804A51.116878 51.116878 0 0 0 543.844118 931.012893a50.597397 50.597397 0 0 0 31.168828 26.597399 128.207779 128.207779 0 0 0 9.55844-8.831167 39.999996 39.999996 0 0 1-31.584412-22.441557z" fill="#FFF2E6" /><path d="M571.896063 872.727184a40.41558 40.41558 0 0 0-18.909089 53.922073 39.999996 39.999996 0 0 0 31.168828 22.441556 109.29869 109.29869 0 0 0 30.545452-71.584409A40.311684 40.311684 0 0 0 571.896063 872.727184z" fill="#84563D" /><path d="M661.87008 793.558361v13.194804A41.558437 41.558437 0 0 1 673.818131 820.779138a40.519476 40.519476 0 0 1-41.558438 57.558435 108.051937 108.051937 0 0 1-9.55844 8.727272 50.701294 50.701294 0 0 0 37.298697-2.597402 51.116878 51.116878 0 0 0 2.38961-91.012978z" fill="#E2C5AC" /><path d="M631.740213 878.441469a40.519476 40.519476 0 0 0 41.558437-57.558435 41.558437 41.558437 0 0 0-11.532466-14.129869 109.29869 109.29869 0 0 1-30.025971 71.688304z" fill="#77442D" /><path d="M600.986969 855.999913a40.311684 40.311684 0 0 1 61.298695-49.246748v-13.194804a51.116878 51.116878 0 0 0-70.545447 67.01298 50.597397 50.597397 0 0 0 31.168828 26.5974 108.051937 108.051937 0 0 0 9.558441-8.727272 40.41558 40.41558 0 0 1-31.480517-22.441556z" fill="#FFF2E6" /><path d="M619.896058 802.077841a40.311684 40.311684 0 0 0 11.844155 76.363628 109.29869 109.29869 0 0 0 30.545451-71.688304 40.311684 40.311684 0 0 0-42.389606-4.675324z" fill="#84563D" /><path d="M783.428509 0.51948L672.77917 26.285712l-15.584414 3.636363a19.116881 19.116881 0 0 0 10.389609 36.883113L778.025912 41.558437 793.194742 37.402594a19.324673 19.324673 0 0 0 13.2987-23.480517A19.532466 19.532466 0 0 0 783.428509 0.51948zM658.129821 255.480494q4.051948-36.467529 8.311687-72.727266a19.116881 19.116881 0 0 0-19.116881-19.116881 19.532466 19.532466 0 0 0-19.116881 19.116881Q616.571383 282.70127 604.727229 382.753208L595.792165 463.376576h38.233762z" fill="#754A27" /><path d="M595.792165 463.376576Q581.870088 581.818123 568.051908 700.467461l-8.311688 72.727266a19.116881 19.116881 0 0 0 19.116881 19.116881 19.740258 19.740258 0 0 0 19.116882-19.116881q11.532466-100.051938 22.961036-200.103876c4.25974-36.571425 8.415584-73.246746 12.675324-109.818171z" fill="#7A6352" /><path d="M169.818182 342.233732m46.025969 0l592.311628 0q46.025969 0 46.02597 46.025969l0 16.519479q0 46.025969-46.02597 46.025969l-592.311628 0q-46.025969 0-46.025969-46.025969l0-16.519479q0-46.025969 46.025969-46.025969Z" fill="#C9E8F7" /><path d="M683.272675 584.831109a16.207791 16.207791 0 0 0 0-32.415581 16.207791 16.207791 0 0 0 0 32.415581zM660.311639 646.025908v144.831155a16.207791 16.207791 0 0 0 32.415581 0V646.025908a16.207791 16.207791 0 0 0-32.415581 0zM575.012946 194.805175h1.350649l3.948052 0.727273 7.064934 1.454545a146.493492 146.493492 0 0 1 14.545453 4.467532l3.740259 1.350649 1.87013 0.727273 2.493506 1.142857 3.532468 1.662337q6.857142 3.428571 13.402596 7.480519l6.025973 3.948052 3.220779 2.38961c0.727273 0 1.974026 1.350649 0.623376 0a149.506478 149.506478 0 0 1 11.428571 10.389609 116.155832 116.155832 0 0 1 18.389608 22.129868 16.519479 16.519479 0 0 0 22.649349 6.025973 16.415583 16.415583 0 0 0 5.818181-22.129867A166.233749 166.233749 0 0 0 575.012946 162.389594a16.311687 16.311687 0 0 0-16.207791 16.20779A16.831167 16.831167 0 0 0 575.012946 194.805175zM706.857088 311.68828a16.207791 16.207791 0 0 0 0-32.415581 16.207791 16.207791 0 0 0 0 32.415581z" fill="#FFFFFF" /></svg>