<?xml version="1.0" standalone="no"?><!DOCTYPE svg PUBLIC "-//W3C//DTD SVG 1.1//EN" "http://www.w3.org/Graphics/SVG/1.1/DTD/svg11.dtd"><svg class="icon" width="200px" height="200.00px" viewBox="0 0 1024 1024" version="1.1" xmlns="http://www.w3.org/2000/svg"><path d="M525.556481 67.490057s54.228649 226.508896-54.437221 386.691983S131.877345 647.423746 131.877345 647.423746s-54.228649-226.613182 54.437221-386.796269S525.556481 67.490057 525.556481 67.490057z m0 0" fill="#66D64C" /><path d="M561.117961 137.361586h-43.487206a205.23458 205.23458 0 0 0-142.975919 59.025799 202.731719 202.731719 0 0 0-59.338656 123.78732l-2.398575 22.004317c-5.214293 49.222928-35.665765 142.975919-35.665766 142.97592l-73.000104 182.500261A284.387551 284.387551 0 0 0 191.111716 840.144022c20.857173 86.348695 93.857277 146.834496 177.285968 146.834496l56.73151 6.465724a106.580153 106.580153 0 0 0 56.522938-9.281442l15.330022-7.195725a94.482993 94.482993 0 0 1 81.134402 0.52143l12.931448 6.257152a105.64158 105.64158 0 0 0 57.148653 9.802871l61.215802-6.57001c83.95012 0 157.263083-60.485801 177.807398-146.834496a286.056125 286.056125 0 0 0-12.61859-172.488819l-73.000104-182.395976s-30.347186-93.857277-35.665766-142.975919l-2.398575-22.004317A203.253149 203.253149 0 0 0 704.198166 196.49167a205.338866 205.338866 0 0 0-143.080205-59.130084z m0 0" fill="#FF6C73" /><path d="M592.925149 137.361586h-39.315771a177.285969 177.285969 0 0 0-129.314471 59.025799A212.117447 212.117447 0 0 0 370.483402 320.174705l-2.085718 22.004317c-4.79715 49.222928-32.328618 142.975919-32.328618 142.97592l-66.430095 182.500261a313.90045 313.90045 0 0 0-11.575731 172.488819c18.562884 86.452981 84.992979 146.834496 160.913088 146.834496l51.308645 6.465724a88.121555 88.121555 0 0 0 51.100074-9.281442l13.870019-7.195725a78.42297 78.42297 0 0 1 73.521534 0.52143l11.680017 6.257152a87.078696 87.078696 0 0 0 51.517217 9.802871l55.375794-6.57001c76.024395 0 142.245918-60.485801 160.808802-146.834496a312.023305 312.023305 0 0 0-11.575731-172.488819l-66.430095-182.395976s-27.531468-93.857277-32.328618-142.975919l-2.085718-22.004317a213.473163 213.473163 0 0 0-53.707219-123.787321 175.721681 175.721681 0 0 0-129.1059-59.130084z m0 0" fill="#EA4747" /><path d="M541.407932 140.490161H507.097883c-41.714346 0-81.968689 20.857173-112.733019 59.025799a227.968898 227.968898 0 0 0-46.720067 123.787321l-1.877145 22.004317c-4.171435 49.222928-28.157183 142.975919-28.157183 142.975919l-57.774369 182.500262a357.074798 357.074798 0 0 0-10.428586 172.488819c16.790024 86.348695 74.251535 146.834496 140.473058 146.834496l44.530064 6.465724a68.82867 68.82867 0 0 0 44.63435-9.281442l12.09716-7.195725a60.381515 60.381515 0 0 1 63.927235 0l10.428586 6.257152a67.160096 67.160096 0 0 0 44.842921 10.324301l48.388641-6.57001c66.221524 0 123.891606-60.485801 140.055915-146.834496a357.179084 357.179084 0 0 0-10.428586-172.488819l-57.565797-182.395976s-24.090035-93.857277-28.157183-142.975919l-1.877146-22.004317a228.281756 228.281756 0 0 0-46.824353-123.683035C623.272336 161.347334 583.122278 140.490161 541.407932 140.490161z m0 0" fill="#FF6C73" /><path d="M508.349314 182.204507l-5.631437-144.123064a31.285759 31.285759 0 1 1 61.52866-2.502861v2.398575L558.197956 182.204507a25.132893 25.132893 0 0 1-50.265786 0z m0 0" fill="#A67C52" /><path d="M649.656659 328.204716a403.16915 403.16915 0 0 1 8.551441 43.070062l-0.938573-6.882867a385.857696 385.857696 0 0 1 3.232862 49.118642 26.071466 26.071466 0 0 0 52.142932 0 397.329141 397.329141 0 0 0-12.722876-99.175856 26.280038 26.280038 0 0 0-32.01576-18.250027A26.592895 26.592895 0 0 0 649.656659 328.204716zM742.783935 683.61094a147.147354 147.147354 0 0 1 15.64288 172.488819c-17.624311 28.678613 27.531468 54.95865 44.947207 26.280038a200.228859 200.228859 0 0 0-23.777177-235.581767 26.071466 26.071466 0 0 0-36.81291 36.81291z" fill="#FFFFFF" /></svg>