<?xml version="1.0" standalone="no"?><!DOCTYPE svg PUBLIC "-//W3C//DTD SVG 1.1//EN" "http://www.w3.org/Graphics/SVG/1.1/DTD/svg11.dtd"><svg class="icon" width="200px" height="200.00px" viewBox="0 0 1024 1024" version="1.1" xmlns="http://www.w3.org/2000/svg"><path d="M510.271916 1024a476.303183 476.303183 0 0 1-64.803154-5.292258c-8.856431-1.080053-18.252888-2.376116-27.217325-3.132152A346.80488 346.80488 0 0 1 175.45562 880.028993a391.087035 391.087035 0 0 1-75.60368-284.485847c10.800526-86.404205 61.346986-191.49332 138.462739-288.05002C310.03017 217.092726 386.929913 157.473825 438.880441 152.289572c20.304988-1.944095 38.557877-3.132152 54.002629-3.132152 56.486749 0 88.024284 12.636615 108.005256 42.554071a273.577316 273.577316 0 0 0 32.401577 32.401577c47.522313 43.95814 135.870613 125.610114 177.344632 241.931775 13.284647 37.585829 54.974676 166.760117 35.857745 258.45658a501.684418 501.684418 0 0 1-50.330449 144.403028A273.46931 273.46931 0 0 1 655.214971 992.57047a394.759214 394.759214 0 0 1-144.943055 31.42953z" fill="#F9DF30" /><path d="M811.066556 476.845369c-23.437141-64.803154-48.170345-119.453814-85.864179-162.007885 22.789109 341.512622-157.363659 486.023656-227.783087 538.190194-51.410502 38.341866-159.739775 49.574413-223.246866 41.90604-51.518508-6.37231-108.005257-50.654465-145.699091-97.204731A348.748974 348.748974 0 0 0 419.871516 1015.251574c68.799349 6.912336 117.617725 22.681104 236.855528-22.789109 137.706702-51.950529 173.348437-181.448831 190.413268-261.804743s-14.79672-195.59752-35.857745-253.704348z" fill="#F0CD32" /><path d="M342.431747 251.006377a77.547774 77.547774 0 0 1-75.60368-55.730713 10.800526 10.800526 0 0 1 2.0521-10.260499 9.936484 9.936484 0 0 1 7.344357-3.672179h2.0521a81.867985 81.867985 0 0 0 19.872967 2.160105c47.522313 0 96.016673-32.401577 103.901058-40.933992a21.601051 21.601051 0 0 1 16.84882-6.588321 92.884521 92.884521 0 0 1 24.841209 5.400263 135.546597 135.546597 0 0 0 16.956825 4.536221h4.644226c9.396457 0 21.601051-5.400263 47.306303-43.958139a10.800526 10.800526 0 0 1 8.208399-4.752232 9.396457 9.396457 0 0 1 8.42441 4.860237 104.441083 104.441083 0 0 1 0.648032 93.532552c-12.204594 28.405383-43.850134 44.17415-84.784127 44.17415a139.326781 139.326781 0 0 1-46.982287-7.884384 99.364836 99.364836 0 0 1-55.730712 19.116931z" fill="#3CB54D" /><path d="M908.919319 403.617805a452.650031 452.650031 0 0 1-173.456443-39.097903 333.304223 333.304223 0 0 1-149.047254-131.982424c-29.37743-50.114439-43.202103-76.683732-51.518508-92.4525a75.60368 75.60368 0 0 0-23.113125-31.321524c-47.414308-41.366013-55.838718-54.002628-57.998822-60.698955a17.064831 17.064831 0 0 1 8.532415-21.601051 7.020342 7.020342 0 0 1 2.160105-0.540026 5.508268 5.508268 0 0 1 3.780184 1.620079 194.409462 194.409462 0 0 1 20.412994 24.625198 154.987544 154.987544 0 0 0 34.669687 37.477824 219.790698 219.790698 0 0 0 44.930187 3.456168c55.298691 1.512074 138.786755 3.780184 195.489515 34.345672a306.842935 306.842935 0 0 1 112.217461 103.793052 251.112222 251.112222 0 0 1 38.665882 167.408148 6.048294 6.048294 0 0 1-6.048294 5.076247z" fill="#5BBA50" /><path d="M335.627416 436.559408c-37.045803 42.230055-49.142392 134.466545-86.404206 115.133604s-38.233861-100.552894-13.824673-151.20736 77.979795-95.800663 115.565625-76.467721 33.265619 56.91877-15.336746 112.433472z" fill="#FFFBE6" /><path d="M901.790972 416.146415h-0.648032a469.498851 469.498851 0 0 1-180.368779-40.609977 351.665116 351.665116 0 0 1-157.039643-139.434786c-28.729398-49.142392-42.554071-75.60368-51.194492-91.804469l-0.648031-1.944094a58.862865 58.862865 0 0 0-18.90092-25.921262c-52.814571-46.118245-60.050923-59.402891-63.507091-69.015359a36.181761 36.181761 0 0 1 18.468899-45.362208 22.249083 22.249083 0 0 1 9.072441-2.0521 23.00512 23.00512 0 0 1 16.092784 6.264305 170.864316 170.864316 0 0 1 20.304988 23.761157l3.672179 4.860236a187.389121 187.389121 0 0 0 26.353282 30.565488c6.1563 0.864042 22.357088 1.404068 34.777693 1.728084h4.428215c56.594755 1.620079 142.242923 4.1042 202.401852 36.505777a327.147923 327.147923 0 0 1 118.805782 110.057356 270.013142 270.013142 0 0 1 41.474019 180.260774 24.193178 24.193178 0 0 1-23.653151 22.141078zM532.196983 104.011222a208.12613 208.12613 0 0 1 11.448557 20.304989l0.972048 1.728084c8.2084 15.660762 21.601051 41.798034 50.006433 89.860373a315.159339 315.159339 0 0 0 140.946861 124.746072A428.672864 428.672864 0 0 0 890.558425 378.020559a231.34726 231.34726 0 0 0-36.937798-143.214971 289.346083 289.346083 0 0 0-105.305125-97.204731c-52.706565-28.405383-133.278487-30.673493-186.633084-32.401577h-4.536221c-10.368505-0.432021-18.468899-0.756037-24.949214-1.188058z" fill="#579E4D" /><path d="M526.904725 127.448363A533.97799 533.97799 0 0 1 809.338472 324.017931c14.040683 18.792915 45.470213 0 31.321524-18.90092A574.263951 574.263951 0 0 0 536.409188 91.050592c-22.465093-6.264305-32.401577 29.809451-9.612468 36.397771z" fill="#579E4D" /><path d="M198.352734 653.325959m53.354597 0l5.292258 0q53.354597 0 53.354597 53.354596l0 9.396458q0 53.354597-53.354597 53.354597l-5.292258 0q-53.354597 0-53.354597-53.354597l0-9.396458q0-53.354597 53.354597-53.354596Z" fill="#FFFBE6" /></svg>